<mxfile host="app.diagrams.net" agent="Mozilla/5.0 (Macintosh; Intel Mac OS X 10_15_7) AppleWebKit/537.36 (KHTML, like Gecko) Chrome/136.0.0.0 Safari/537.36" version="28.1.0">
  <diagram name="Page-1" id="pOxoVmRd1DG6dczoEZTD">
    <mxGraphModel dx="781" dy="1604" grid="1" gridSize="10" guides="1" tooltips="1" connect="1" arrows="1" fold="1" page="1" pageScale="1" pageWidth="850" pageHeight="1100" math="0" shadow="0">
      <root>
        <mxCell id="0" />
        <mxCell id="1" parent="0" />
        <mxCell id="yJVhW3bjladFrKxNDG_Y-22" value="" style="rounded=1;whiteSpace=wrap;html=1;" vertex="1" parent="1">
          <mxGeometry x="50" y="130" width="160" height="200" as="geometry" />
        </mxCell>
        <mxCell id="yJVhW3bjladFrKxNDG_Y-7" value="" style="rounded=1;whiteSpace=wrap;html=1;" vertex="1" parent="1">
          <mxGeometry x="300" width="180" height="650" as="geometry" />
        </mxCell>
        <mxCell id="yJVhW3bjladFrKxNDG_Y-14" style="edgeStyle=orthogonalEdgeStyle;rounded=0;orthogonalLoop=1;jettySize=auto;html=1;" edge="1" parent="1" source="yJVhW3bjladFrKxNDG_Y-1" target="yJVhW3bjladFrKxNDG_Y-2">
          <mxGeometry relative="1" as="geometry" />
        </mxCell>
        <mxCell id="yJVhW3bjladFrKxNDG_Y-1" value="Action 1" style="rounded=1;whiteSpace=wrap;html=1;" vertex="1" parent="1">
          <mxGeometry x="330" y="150" width="120" height="60" as="geometry" />
        </mxCell>
        <mxCell id="yJVhW3bjladFrKxNDG_Y-13" style="edgeStyle=orthogonalEdgeStyle;rounded=0;orthogonalLoop=1;jettySize=auto;html=1;" edge="1" parent="1" source="yJVhW3bjladFrKxNDG_Y-2" target="yJVhW3bjladFrKxNDG_Y-3">
          <mxGeometry relative="1" as="geometry" />
        </mxCell>
        <mxCell id="yJVhW3bjladFrKxNDG_Y-2" value="Action 2" style="rounded=1;whiteSpace=wrap;html=1;" vertex="1" parent="1">
          <mxGeometry x="330" y="240" width="120" height="60" as="geometry" />
        </mxCell>
        <mxCell id="yJVhW3bjladFrKxNDG_Y-16" style="edgeStyle=orthogonalEdgeStyle;rounded=0;orthogonalLoop=1;jettySize=auto;html=1;entryX=0.5;entryY=0;entryDx=0;entryDy=0;" edge="1" parent="1" source="yJVhW3bjladFrKxNDG_Y-3" target="yJVhW3bjladFrKxNDG_Y-15">
          <mxGeometry relative="1" as="geometry" />
        </mxCell>
        <mxCell id="yJVhW3bjladFrKxNDG_Y-3" value="Action 3" style="rounded=1;whiteSpace=wrap;html=1;" vertex="1" parent="1">
          <mxGeometry x="330" y="330" width="120" height="60" as="geometry" />
        </mxCell>
        <mxCell id="yJVhW3bjladFrKxNDG_Y-9" style="edgeStyle=orthogonalEdgeStyle;rounded=0;orthogonalLoop=1;jettySize=auto;html=1;entryX=0.5;entryY=0;entryDx=0;entryDy=0;" edge="1" parent="1" source="yJVhW3bjladFrKxNDG_Y-8">
          <mxGeometry relative="1" as="geometry">
            <mxPoint x="390.0000000000002" y="150" as="targetPoint" />
          </mxGeometry>
        </mxCell>
        <mxCell id="yJVhW3bjladFrKxNDG_Y-8" value="Start" style="ellipse;whiteSpace=wrap;html=1;" vertex="1" parent="1">
          <mxGeometry x="335" y="30" width="110" height="70" as="geometry" />
        </mxCell>
        <mxCell id="yJVhW3bjladFrKxNDG_Y-15" value="End" style="ellipse;whiteSpace=wrap;html=1;" vertex="1" parent="1">
          <mxGeometry x="335" y="550" width="110" height="70" as="geometry" />
        </mxCell>
        <mxCell id="yJVhW3bjladFrKxNDG_Y-17" value="Example DAGS" style="text;html=1;align=center;verticalAlign=middle;resizable=0;points=[];autosize=1;strokeColor=none;fillColor=none;" vertex="1" parent="1">
          <mxGeometry x="335" y="-100" width="110" height="30" as="geometry" />
        </mxCell>
        <mxCell id="yJVhW3bjladFrKxNDG_Y-19" style="edgeStyle=orthogonalEdgeStyle;rounded=0;orthogonalLoop=1;jettySize=auto;html=1;entryX=0.5;entryY=0;entryDx=0;entryDy=0;" edge="1" parent="1" source="yJVhW3bjladFrKxNDG_Y-20" target="yJVhW3bjladFrKxNDG_Y-21">
          <mxGeometry relative="1" as="geometry" />
        </mxCell>
        <mxCell id="yJVhW3bjladFrKxNDG_Y-20" value="Load Secret&amp;nbsp;&lt;div&gt;in Memory&lt;/div&gt;" style="rounded=1;whiteSpace=wrap;html=1;" vertex="1" parent="1">
          <mxGeometry x="70" y="150" width="120" height="60" as="geometry" />
        </mxCell>
        <mxCell id="yJVhW3bjladFrKxNDG_Y-21" value="Test connection&lt;div&gt;to PostgreSQL&lt;/div&gt;" style="rounded=1;whiteSpace=wrap;html=1;" vertex="1" parent="1">
          <mxGeometry x="70" y="240" width="120" height="60" as="geometry" />
        </mxCell>
      </root>
    </mxGraphModel>
  </diagram>
</mxfile>
